<svg width="400" height="600" viewBox="0 0 400 600" xmlns="http://www.w3.org/2000/svg">
  <defs>
    <linearGradient id="skyGradient" x1="0%" y1="0%" x2="0%" y2="100%">
      <stop offset="0%" stop-color="#08182B" />
      <stop offset="100%" stop-color="#1A2A4A" />
    </linearGradient>
    <radialGradient id="moonGlow" cx="80%" cy="20%" r="30%">
      <stop offset="0%" stop-color="#FFA741" stop-opacity="0.8" />
      <stop offset="50%" stop-color="#FFA741" stop-opacity="0.3" />
      <stop offset="100%" stop-color="#FFA741" stop-opacity="0" />
    </radialGradient>
    <filter id="blur" x="-50%" y="-50%" width="200%" height="200%">
      <feGaussianBlur in="SourceGraphic" stdDeviation="2"/>
    </filter>
  </defs>
  
  <!-- Sky background -->
  <rect width="400" height="600" fill="url(#skyGradient)" />
  
  <!-- Moon glow -->
  <circle cx="320" cy="120" r="120" fill="url(#moonGlow)" />
  
  <!-- City skyline silhouette -->
  <polygon points="0,400 50,350 100,380 150,320 200,340 250,300 300,330 350,310 400,350 400,600 0,600" 
           fill="#0F1419" opacity="0.9" />
  
  <!-- Building details -->
  <rect x="60" y="360" width="30" height="240" fill="#0A0E14" />
  <rect x="120" y="320" width="25" height="280" fill="#0A0E14" />
  <rect x="180" y="340" width="35" height="260" fill="#0A0E14" />
  <rect x="240" y="300" width="20" height="300" fill="#0A0E14" />
  <rect x="290" y="330" width="28" height="270" fill="#0A0E14" />
  
  <!-- Building windows -->
  <rect x="65" y="370" width="6" height="8" fill="#FFA741" opacity="0.6" />
  <rect x="75" y="370" width="6" height="8" fill="#FFA741" opacity="0.6" />
  <rect x="65" y="390" width="6" height="8" fill="#FFA741" opacity="0.4" />
  <rect x="125" y="330" width="5" height="7" fill="#FFA741" opacity="0.5" />
  <rect x="135" y="330" width="5" height="7" fill="#FFA741" opacity="0.5" />
  <rect x="125" y="350" width="5" height="7" fill="#FFA741" opacity="0.3" />
  <rect x="185" y="350" width="7" height="9" fill="#FFA741" opacity="0.4" />
  <rect x="200" y="350" width="7" height="9" fill="#FFA741" opacity="0.6" />
  <rect x="245" y="310" width="4" height="6" fill="#FFA741" opacity="0.5" />
  <rect x="245" y="330" width="4" height="6" fill="#FFA741" opacity="0.3" />
  <rect x="295" y="340" width="6" height="8" fill="#FFA741" opacity="0.4" />
  <rect x="305" y="340" width="6" height="8" fill="#FFA741" opacity="0.5" />
  
  <!-- Fog/mist layers -->
  <ellipse cx="200" cy="450" rx="300" ry="50" fill="#1A2A4A" opacity="0.6" filter="url(#blur)" />
  <ellipse cx="150" cy="480" rx="250" ry="40" fill="#1A2A4A" opacity="0.4" filter="url(#blur)" />
  <ellipse cx="250" cy="510" rx="200" ry="30" fill="#1A2A4A" opacity="0.3" filter="url(#blur)" />
  
  <!-- Pregnant woman silhouette on rooftop -->
  <g transform="translate(180, 280)">
    <!-- Rooftop platform -->
    <rect x="-20" y="40" width="80" height="8" fill="#0A0E14" />
    
    <!-- Woman's silhouette -->
    <g fill="#000000" opacity="0.8">
      <!-- Head -->
      <circle cx="20" cy="0" r="12" />
      
      <!-- Hair -->
      <ellipse cx="20" cy="-5" rx="14" ry="8" />
      
      <!-- Body -->
      <ellipse cx="20" cy="25" rx="8" ry="18" />
      
      <!-- Pregnant belly -->
      <ellipse cx="20" cy="35" rx="12" ry="15" />
      
      <!-- Arms -->
      <ellipse cx="8" cy="20" rx="4" ry="12" transform="rotate(-15 8 20)" />
      <ellipse cx="32" cy="20" rx="4" ry="12" transform="rotate(15 32 20)" />
      
      <!-- Hands on belly gesture -->
      <ellipse cx="12" cy="32" rx="3" ry="6" transform="rotate(-20 12 32)" />
      <ellipse cx="28" cy="32" rx="3" ry="6" transform="rotate(20 28 32)" />
      
      <!-- Legs -->
      <ellipse cx="15" cy="55" rx="3" ry="15" />
      <ellipse cx="25" cy="55" rx="3" ry="15" />
      
      <!-- Feet -->
      <ellipse cx="15" cy="70" rx="2" ry="4" />
      <ellipse cx="25" cy="70" rx="2" ry="4" />
    </g>
  </g>
  
  <!-- Atmospheric particles -->
  <circle cx="80" cy="200" r="1" fill="#FFA741" opacity="0.3" />
  <circle cx="320" cy="250" r="1.5" fill="#FFA741" opacity="0.4" />
  <circle cx="150" cy="180" r="0.8" fill="#FFA741" opacity="0.5" />
  <circle cx="280" cy="220" r="1.2" fill="#FFA741" opacity="0.3" />
  <circle cx="60" cy="280" r="0.9" fill="#FFA741" opacity="0.4" />
  <circle cx="340" cy="300" r="1.1" fill="#FFA741" opacity="0.3" />
  
  <!-- Subtle light rays from moon -->
  <path d="M320 120 L200 400 L210 400 L330 120 Z" fill="#FFA741" opacity="0.05" />
  <path d="M320 120 L150 450 L160 450 L330 120 Z" fill="#FFA741" opacity="0.03" />
  <path d="M320 120 L250 480 L260 480 L330 120 Z" fill="#FFA741" opacity="0.04" />
</svg>
