<svg width="128" height="128" viewBox="0 0 128 128" xmlns="http://www.w3.org/2000/svg">
  <!-- QR Code pattern for Google Play Store -->
  <rect width="128" height="128" fill="white" stroke="#e5e5e5" stroke-width="1"/>
  
  <!-- Corner markers -->
  <rect x="4" y="4" width="28" height="28" fill="none" stroke="black" stroke-width="2"/>
  <rect x="96" y="4" width="28" height="28" fill="none" stroke="black" stroke-width="2"/>
  <rect x="4" y="96" width="28" height="28" fill="none" stroke="black" stroke-width="2"/>
  
  <!-- Inner corner squares -->
  <rect x="8" y="8" width="20" height="20" fill="black"/>
  <rect x="100" y="8" width="20" height="20" fill="black"/>
  <rect x="8" y="100" width="20" height="20" fill="black"/>
  
  <!-- Center squares in corners -->
  <rect x="12" y="12" width="12" height="12" fill="white"/>
  <rect x="104" y="12" width="12" height="12" fill="white"/>
  <rect x="12" y="104" width="12" height="12" fill="white"/>
  
  <rect x="16" y="16" width="4" height="4" fill="black"/>
  <rect x="108" y="16" width="4" height="4" fill="black"/>
  <rect x="16" y="108" width="4" height="4" fill="black"/>
  
  <!-- Timing patterns -->
  <rect x="36" y="20" width="4" height="4" fill="black"/>
  <rect x="44" y="20" width="4" height="4" fill="black"/>
  <rect x="52" y="20" width="4" height="4" fill="black"/>
  <rect x="60" y="20" width="4" height="4" fill="black"/>
  <rect x="68" y="20" width="4" height="4" fill="black"/>
  <rect x="76" y="20" width="4" height="4" fill="black"/>
  <rect x="84" y="20" width="4" height="4" fill="black"/>
  
  <rect x="20" y="36" width="4" height="4" fill="black"/>
  <rect x="20" y="44" width="4" height="4" fill="black"/>
  <rect x="20" y="52" width="4" height="4" fill="black"/>
  <rect x="20" y="60" width="4" height="4" fill="black"/>
  <rect x="20" y="68" width="4" height="4" fill="black"/>
  <rect x="20" y="76" width="4" height="4" fill="black"/>
  <rect x="20" y="84" width="4" height="4" fill="black"/>
  
  <!-- Data pattern (simplified representation) -->
  <rect x="36" y="36" width="4" height="4" fill="black"/>
  <rect x="44" y="36" width="4" height="4" fill="black"/>
  <rect x="52" y="44" width="4" height="4" fill="black"/>
  <rect x="60" y="36" width="4" height="4" fill="black"/>
  <rect x="68" y="44" width="4" height="4" fill="black"/>
  <rect x="76" y="36" width="4" height="4" fill="black"/>
  <rect x="84" y="44" width="4" height="4" fill="black"/>
  
  <rect x="36" y="52" width="4" height="4" fill="black"/>
  <rect x="44" y="60" width="4" height="4" fill="black"/>
  <rect x="52" y="52" width="4" height="4" fill="black"/>
  <rect x="60" y="60" width="4" height="4" fill="black"/>
  <rect x="68" y="52" width="4" height="4" fill="black"/>
  <rect x="76" y="60" width="4" height="4" fill="black"/>
  <rect x="84" y="52" width="4" height="4" fill="black"/>
  
  <rect x="36" y="68" width="4" height="4" fill="black"/>
  <rect x="44" y="76" width="4" height="4" fill="black"/>
  <rect x="52" y="68" width="4" height="4" fill="black"/>
  <rect x="60" y="76" width="4" height="4" fill="black"/>
  <rect x="68" y="68" width="4" height="4" fill="black"/>
  <rect x="76" y="76" width="4" height="4" fill="black"/>
  <rect x="84" y="68" width="4" height="4" fill="black"/>
  
  <rect x="36" y="84" width="4" height="4" fill="black"/>
  <rect x="44" y="92" width="4" height="4" fill="black"/>
  <rect x="52" y="84" width="4" height="4" fill="black"/>
  <rect x="60" y="92" width="4" height="4" fill="black"/>
  <rect x="68" y="84" width="4" height="4" fill="black"/>
  <rect x="76" y="92" width="4" height="4" fill="black"/>
  <rect x="84" y="84" width="4" height="4" fill="black"/>
  
  <!-- Additional data modules -->
  <rect x="92" y="36" width="4" height="4" fill="black"/>
  <rect x="92" y="44" width="4" height="4" fill="black"/>
  <rect x="92" y="52" width="4" height="4" fill="black"/>
  <rect x="92" y="60" width="4" height="4" fill="black"/>
  <rect x="92" y="68" width="4" height="4" fill="black"/>
  <rect x="92" y="76" width="4" height="4" fill="black"/>
  <rect x="92" y="84" width="4" height="4" fill="black"/>
  
  <rect x="100" y="36" width="4" height="4" fill="black"/>
  <rect x="108" y="44" width="4" height="4" fill="black"/>
  <rect x="116" y="36" width="4" height="4" fill="black"/>
  <rect x="100" y="52" width="4" height="4" fill="black"/>
  <rect x="108" y="60" width="4" height="4" fill="black"/>
  <rect x="116" y="52" width="4" height="4" fill="black"/>
  <rect x="100" y="68" width="4" height="4" fill="black"/>
  <rect x="108" y="76" width="4" height="4" fill="black"/>
  <rect x="116" y="68" width="4" height="4" fill="black"/>
  <rect x="100" y="84" width="4" height="4" fill="black"/>
  <rect x="108" y="92" width="4" height="4" fill="black"/>
  <rect x="116" y="84" width="4" height="4" fill="black"/>
  
  <!-- Format information -->
  <rect x="32" y="32" width="4" height="4" fill="black"/>
  <rect x="88" y="32" width="4" height="4" fill="black"/>
  <rect x="32" y="88" width="4" height="4" fill="black"/>
  
  <!-- Dark module -->
  <rect x="64" y="64" width="4" height="4" fill="black"/>
</svg>
